<?xml version="1.0" encoding="utf-8"?>
<!-- Generator: Adobe Illustrator 24.3.0, SVG Export Plug-In . SVG Version: 6.00 Build 0)  -->
<svg version="1.1" id="Layer_1" xmlns="http://www.w3.org/2000/svg" xmlns:xlink="http://www.w3.org/1999/xlink" x="0px" y="0px"
	 viewBox="0 0 595.28 841.89" style="enable-background:new 0 0 595.28 841.89;" xml:space="preserve">
<style type="text/css">
	.st0{fill:#F6AF1B;}
</style>
<g>
	<polygon class="st0" points="239.66,453.94 288.55,453.94 288.55,503.94 189.66,503.94 189.66,353.92 239.66,353.92 239.66,382.3 
		262.86,382.3 262.86,432.3 239.66,432.3 	"/>
	<rect x="189.66" y="303.75" class="st0" width="99.79" height="50"/>
	<polygon class="st0" points="397.64,453.94 397.64,503.94 300.34,503.94 300.34,353.84 350.34,353.84 350.34,453.94 	"/>
	<rect x="300.34" y="303.75" class="st0" width="50" height="50"/>
	<rect x="28.93" y="303.9" class="st0" width="99.53" height="50"/>
	<rect x="128.6" y="303.9" class="st0" width="50" height="50"/>
	<polygon class="st0" points="89.87,403.97 128.46,403.97 128.46,453.97 78.93,453.97 78.93,503.94 28.93,503.94 28.93,403.97 
		39.87,403.97 39.87,354.07 89.87,354.07 	"/>
	<rect x="128.6" y="353.99" class="st0" width="50" height="99.98"/>
	<polygon class="st0" points="516.9,306.42 516.9,393.19 517.97,432.62 517.7,432.62 506.14,405.62 457.75,306.42 397.8,306.42 
		397.8,456.42 445.65,456.42 445.65,419.88 444.58,380.44 445.11,380.44 456.41,407.44 504.8,506.64 565.02,506.64 565.02,306.42 	
		"/>
</g>
</svg>
